<svg xmlns="http://www.w3.org/2000/svg" width="58" height="58" viewBox="0 0 58 58">
  <g id="building" transform="translate(-394 -1438)">
    <rect id="長方形_3592" data-name="長方形 3592" width="58" height="58" transform="translate(394 1438)" fill="none"/>
    <path id="パス_19289" data-name="パス 19289" d="M38.861,38.9V2H8.5V38.9H2V43H45.365V38.9ZM21.514,6.1h4.337v4.1H21.514Zm0,8.2h4.337v4.1H21.514Zm0,8.2h4.337v4.1H21.514Zm-4.337,4.1H12.841V22.5h4.337Zm0-8.2H12.841V14.3h4.337Zm0-8.2H12.841V6.1h4.337ZM28.019,38.9H19.346V30.7h8.673Zm6.5-12.3H30.187V22.5h4.337Zm0-8.2H30.187V14.3h4.337Zm0-8.2H30.187V6.1h4.337Z" transform="translate(399 1445)"/>
  </g>
</svg>
