<svg xmlns="http://www.w3.org/2000/svg" width="58" height="58" viewBox="0 0 58 58">
  <g id="profile" transform="translate(-960 -1438)">
    <rect id="長方形_3594" data-name="長方形 3594" width="58" height="58" transform="translate(960 1438)" fill="none"/>
    <g id="グループ_18228" data-name="グループ 18228" transform="translate(972 1448)">
      <g id="Icon" transform="translate(0)">
        <path id="パス_19253" data-name="パス 19253" d="M376.393,245.786v33.429A2.869,2.869,0,0,1,373.446,282h-27.5A2.869,2.869,0,0,1,343,279.214V245.786A2.869,2.869,0,0,1,345.946,243h27.5A2.869,2.869,0,0,1,376.393,245.786ZM355.768,278.3h15.714a.93.93,0,1,0,0-1.857H355.768a.93.93,0,1,0,0,1.857Zm-7.857-.017h3.929a.93.93,0,1,0,0-1.857h-3.929a.93.93,0,1,0,0,1.857Zm7.857-3.7h15.714a.93.93,0,1,0,0-1.857H355.768a.93.93,0,1,0,0,1.857Zm-7.857-.017h3.929a.93.93,0,1,0,0-1.857h-3.929a.93.93,0,1,0,0,1.857Zm7.857-3.7h15.714a.93.93,0,1,0,0-1.857H355.768a.93.93,0,1,0,0,1.857Zm-7.857-.017h3.929a.93.93,0,1,0,0-1.857h-3.929a.93.93,0,1,0,0,1.857Zm8.447-16.1a8.38,8.38,0,0,0-5.5,7.74.984.984,0,0,0,1.964,0,6.886,6.886,0,0,1,13.75,0,.984.984,0,0,0,1.964,0,8.38,8.38,0,0,0-5.5-7.74,4.516,4.516,0,0,0,1.572-3.4,4.918,4.918,0,0,0-9.821,0A4.516,4.516,0,0,0,356.358,254.76Zm3.338-6.189a2.79,2.79,0,1,1-2.946,2.786A2.871,2.871,0,0,1,359.7,248.571Z" transform="translate(-343 -243)" fill-rule="evenodd"/>
      </g>
    </g>
  </g>
</svg>
