<svg xmlns="http://www.w3.org/2000/svg" width="60.932" height="18.911" viewBox="0 0 60.932 18.911">
  <path id="logo_w" d="M5015.7,15.826h3.633l2.375,5.683,2.213-5.683h3.426c.022,0-5.636,12.086-5.636,12.086S5015.749,15.826,5015.7,15.826Zm-28.775,11.309A9.39,9.39,0,0,1,4990.177,9h0a9.4,9.4,0,1,1-3.25,18.132Zm3.553-3.205a5.641,5.641,0,1,0-5.892-5.378h0A5.662,5.662,0,0,0,4990.48,23.93Zm39.15-2.211a6.136,6.136,0,0,1,11.085-3.843A7.464,7.464,0,0,1,5041.9,22.6h-8.616c-.046,1.048,2.655,3.656,5.029.6l3.052,1.071a5.677,5.677,0,0,1-5.375,3.483A6.135,6.135,0,0,1,5029.63,21.719Zm3.587-1.491h5.239a2.507,2.507,0,0,0-2.631-1.98l-.1,0A2.573,2.573,0,0,0,5033.218,20.228Zm-23.686,7.056v-11.6h3.423v11.6Zm-6.732,0V9.493h3.4v17.79Zm8.382-14a2,2,0,1,1,.047,0Z" transform="translate(-4981 -9.001)" fill="#fff"/>
</svg>
