<svg xmlns="http://www.w3.org/2000/svg" width="25.152" height="58.243" viewBox="0 0 25.152 58.243">
  <g id="form_laurel_r" transform="translate(20.969 59.151) rotate(-172)">
    <path id="パス_3115" data-name="パス 3115" d="M.693,0C3.57.259,4.5,1.649,4.927,3.2c.028.533.6,1.378-.329,1.374C1.992,4.055-.9,2.559.267.188A.433.433,0,0,1,.693,0" transform="translate(16.842 52.066)" fill="#a4a090"/>
    <path id="パス_3116" data-name="パス 3116" d="M2.665.106a2.588,2.588,0,0,1,1.043,3.23c-.388.8-1.666,2.848-2.417,2.166C0,4.112-1.153,1.1,2.168.031a.529.529,0,0,1,.5.075" transform="translate(9.684 48.06)" fill="#a4a090"/>
    <path id="パス_3117" data-name="パス 3117" d="M3.38.111c2.069,1.88.053,4.534-1.9,5.641A.517.517,0,0,1,.8,5.609C.154,4.665-.573,2.315.7,1.106c.374-.37,1.813-1.453,2.677-1" transform="translate(5.472 41.785)" fill="#a4a090"/>
    <path id="パス_3118" data-name="パス 3118" d="M4.239.2c1.293,1.852.128,3.686-1.824,4.911C1.7,5.459.89,6.357.368,5.657-.391,3.894-.29.4,3.746.005A.506.506,0,0,1,4.239.2" transform="translate(2.355 34.889)" fill="#a4a090"/>
    <path id="パス_3119" data-name="パス 3119" d="M5.342.267c1.322,2.348-2.06,4.852-4.6,5.55a.5.5,0,0,1-.662-.306C-.182,4.361.137,1.686,2.053.7,2.571.4,4.714-.419,5.342.267" transform="translate(0.475 27.586)" fill="#a4a090"/>
    <path id="パス_3120" data-name="パス 3120" d="M6.712.369C7.46,3.057,3.45,5.1.637,5.582-.529,5.593.25,4.369.313,3.685A5.261,5.261,0,0,1,6.285.049a.442.442,0,0,1,.427.32" transform="translate(0 19.999)" fill="#a4a090"/>
    <path id="パス_3121" data-name="パス 3121" d="M8.07.577C8.035,2.821,5.377,4.433,2.509,4.936,1.514,5.037,0,5.671,0,4.755A6.608,6.608,0,0,1,4.442.211c.7-.182,3.314-.5,3.628.367" transform="translate(1.357 12.259)" fill="#a4a090"/>
    <path id="パス_3122" data-name="パス 3122" d="M9.392.872c-.586,1.717-2,2.772-4.119,3.349C3.792,4.582-.474,5.3.043,4.186.666,2.916,3.026.316,5.757.046c.758-.1,3.536-.105,3.635.826" transform="translate(4.658 4.622)" fill="#a4a090"/>
    <path id="パス_3123" data-name="パス 3123" d="M.005.6C.476,3.048,4.351,3.23,6.535,2.774c.26-.047.4-.25.274-.4A6.041,6.041,0,0,0,.249.292C.076.343-.024.47.005.6" transform="translate(15.3 46.581)" fill="#a4a090"/>
    <path id="パス_3124" data-name="パス 3124" d="M.008.44c-.211,2.413,4,3.279,6.357,2.947.282-.022.468-.22.37-.39A6,6,0,0,0,2.993.15C2.4.052.39-.249.008.44" transform="translate(11.996 40.77)" fill="#a4a090"/>
    <path id="パス_3125" data-name="パス 3125" d="M.056.309c-.444,2,1.8,3.313,4.28,3.6.838.031,2.109.44,2.168-.232A5.463,5.463,0,0,0,.457.037a.413.413,0,0,0-.4.273" transform="translate(9.828 34.423)" fill="#a4a090"/>
    <path id="パス_3126" data-name="パス 3126" d="M.267.244C-1.069,2.708,2.9,4.614,5.619,4.776c.309.039.594-.127.564-.327A4.921,4.921,0,0,0,3.551.629C3.018.4.933-.4.267.244" transform="translate(8.907 27.619)" fill="#a4a090"/>
    <path id="パス_3127" data-name="パス 3127" d="M.557.2c-1.968,2.48,1.7,4.795,4.459,5.3.311.075.643-.063.656-.272C5.956,3.046,4.746.443,1.1.008A.566.566,0,0,0,.557.2" transform="translate(9.494 20.564)" fill="#a4a090"/>
    <path id="パス_3128" data-name="パス 3128" d="M.96.153C-1,1.891.281,4.255,2.629,5.391c.834.337,1.825,1.2,2.391.55.791-2.247.208-5-3.449-5.916A.654.654,0,0,0,.96.153" transform="translate(11.693 13.463)" fill="#a4a090"/>
    <path id="パス_3129" data-name="パス 3129" d="M1.547.11c-3.3,2.06-.68,5.361,1.916,6.556C4.656,7.152,4.873,5.038,5.088,4.5c.38-1.792-.456-3.426-2.879-4.445A.72.72,0,0,0,1.547.11" transform="translate(15.517 6.546)" fill="#a4a090"/>
    <path id="パス_3130" data-name="パス 3130" d="M13.621,0a1.025,1.025,0,0,0-.7.277A42.461,42.461,0,0,0,3.838,12.245,35.573,35.573,0,0,0,.1,25.569,34.111,34.111,0,0,0,1.819,39.113,38.407,38.407,0,0,0,9.064,51.72a1.029,1.029,0,1,0,1.567-1.334C-1.98,35.57-.462,15.583,14.324,1.781A1.029,1.029,0,0,0,13.621,0Z" transform="translate(6.524 0)" fill="#a4a090"/>
  </g>
</svg>
