<svg xmlns="http://www.w3.org/2000/svg" width="25.152" height="58.243" viewBox="0 0 25.152 58.243">
  <g id="form_laurel_l" transform="translate(-3.701 3.057) rotate(-8)">
    <path id="パス_3115" data-name="パス 3115" d="M.693,4.577C3.57,4.32,4.5,2.93,4.927,1.374,4.955.842,5.524,0,4.6,0,1.992.524-.9,2.02.267,4.391a.433.433,0,0,0,.426.186" transform="translate(16.842 0)" fill="#a4a090"/>
    <path id="パス_3116" data-name="パス 3116" d="M2.665,5.533A2.588,2.588,0,0,0,3.708,2.3C3.32,1.5,2.042-.545,1.291.137,0,1.527-1.153,4.534,2.168,5.608a.529.529,0,0,0,.5-.075" transform="translate(9.684 2.947)" fill="#a4a090"/>
    <path id="パス_3117" data-name="パス 3117" d="M3.38,5.713c2.069-1.88.053-4.534-1.9-5.641A.517.517,0,0,0,.8.214c-.648.944-1.374,3.294-.1,4.5.374.37,1.813,1.453,2.677,1" transform="translate(5.472 9.037)" fill="#a4a090"/>
    <path id="パス_3118" data-name="パス 3118" d="M4.239,5.72C5.532,3.868,4.367,2.034,2.415.809,1.7.458.89-.44.368.259-.391,2.023-.29,5.515,3.746,5.912a.506.506,0,0,0,.493-.192" transform="translate(2.355 15.84)" fill="#a4a090"/>
    <path id="パス_3119" data-name="パス 3119" d="M5.342,5.58C6.664,3.232,3.282.728.741.03A.5.5,0,0,0,.079.336C-.182,1.487.137,4.161,2.053,5.15c.518.3,2.66,1.116,3.289.43" transform="translate(0.475 23.212)" fill="#a4a090"/>
    <path id="パス_3120" data-name="パス 3120" d="M6.712,5.213C7.46,2.525,3.45.481.637,0-.529-.011.25,1.214.313,1.9A5.261,5.261,0,0,0,6.285,5.533a.442.442,0,0,0,.427-.32" transform="translate(0 31.064)" fill="#a4a090"/>
    <path id="パス_3121" data-name="パス 3121" d="M8.07,4.666C8.035,2.422,5.377.81,2.509.307,1.514.207,0-.427,0,.488A6.608,6.608,0,0,0,4.442,5.033c.7.182,3.314.5,3.627-.367" transform="translate(1.357 39.143)" fill="#a4a090"/>
    <path id="パス_3122" data-name="パス 3122" d="M9.392,3.91c-.586-1.717-2-2.772-4.119-3.349C3.792.2-.474-.515.043.6c.622,1.27,2.983,3.87,5.714,4.14.758.1,3.536.105,3.635-.826" transform="translate(4.658 47.241)" fill="#a4a090"/>
    <path id="パス_3123" data-name="パス 3123" d="M.005,2.373C.476-.076,4.351-.258,6.535.2c.26.047.4.25.274.4A6.041,6.041,0,0,1,.249,2.68C.076,2.629-.024,2.5.005,2.373" transform="translate(15.3 7.092)" fill="#a4a090"/>
    <path id="パス_3124" data-name="パス 3124" d="M.008,3.015C-.2.6,4.008-.264,6.365.068c.282.022.468.22.37.39A6,6,0,0,1,2.993,3.306c-.593.1-2.6.4-2.985-.29" transform="translate(11.996 12.42)" fill="#a4a090"/>
    <path id="パス_3125" data-name="パス 3125" d="M.056,3.753c-.444-2,1.8-3.313,4.28-3.6C5.175.121,6.446-.289,6.5.384A5.463,5.463,0,0,1,.457,4.026a.413.413,0,0,1-.4-.273" transform="translate(9.828 18.16)" fill="#a4a090"/>
    <path id="パス_3126" data-name="パス 3126" d="M.267,4.538C-1.069,2.073,2.9.167,5.619.006c.309-.039.594.127.564.327a4.921,4.921,0,0,1-2.632,3.82C3.018,4.383.933,5.176.267,4.538" transform="translate(8.907 24.245)" fill="#a4a090"/>
    <path id="パス_3127" data-name="パス 3127" d="M.557,5.32c-1.968-2.48,1.7-4.795,4.459-5.3.311-.075.643.063.656.272.284,2.177-.926,4.78-4.57,5.216A.566.566,0,0,1,.557,5.32" transform="translate(9.494 30.566)" fill="#a4a090"/>
    <path id="パス_3128" data-name="パス 3128" d="M.96,6.026C-1,4.288.281,1.924,2.629.788,3.463.451,4.453-.417,5.02.238c.791,2.247.208,5-3.449,5.916A.654.654,0,0,1,.96,6.026" transform="translate(11.693 37.003)" fill="#a4a090"/>
    <path id="パス_3129" data-name="パス 3129" d="M1.547,6.628c-3.3-2.06-.68-5.361,1.916-6.556C4.656-.414,4.873,1.7,5.088,2.237c.38,1.792-.456,3.426-2.879,4.445a.72.72,0,0,1-.662-.055" transform="translate(15.517 43.361)" fill="#a4a090"/>
    <path id="パス_3130" data-name="パス 3130" d="M13.621,52.082a1.025,1.025,0,0,1-.7-.277A42.461,42.461,0,0,1,3.838,39.837,35.573,35.573,0,0,1,.1,26.513,34.111,34.111,0,0,1,1.819,12.969,38.408,38.408,0,0,1,9.064.362,1.029,1.029,0,1,1,10.631,1.7C-1.98,16.512-.462,36.5,14.324,50.3a1.029,1.029,0,0,1-.7,1.781Z" transform="translate(6.524 4.564)" fill="#a4a090"/>
  </g>
</svg>
