<svg xmlns="http://www.w3.org/2000/svg" width="10.105" height="12.381" viewBox="0 0 10.105 12.381">
  <g id="file" transform="translate(-3.5 -1.5)">
    <path id="パス_19213" data-name="パス 19213" d="M5.138,13.381A1.138,1.138,0,0,1,4,12.243v-9.1A1.138,1.138,0,0,1,5.138,2H9.69a1.366,1.366,0,0,1,.97.4L12.7,4.443a1.366,1.366,0,0,1,.4.971v6.828a1.138,1.138,0,0,1-1.138,1.138Z" transform="translate(0 0)" fill="none" stroke="#000" stroke-linecap="round" stroke-linejoin="round" stroke-width="1"/>
    <path id="パス_19214" data-name="パス 19214" d="M14,2V4.845a.569.569,0,0,0,.569.569h2.845" transform="translate(-4.31 0)" fill="none" stroke="#000" stroke-linecap="round" stroke-linejoin="round" stroke-width="1"/>
  </g>
</svg>
