<svg xmlns="http://www.w3.org/2000/svg" width="13.6" height="16.688" viewBox="0 0 13.6 16.688">
  <g id="upload" transform="translate(-3.375 -1.375)">
    <path id="パス_19213" data-name="パス 19213" d="M5.544,17.438A1.544,1.544,0,0,1,4,15.894V3.544A1.544,1.544,0,0,1,5.544,2h6.175a1.853,1.853,0,0,1,1.315.545L15.8,5.314a1.852,1.852,0,0,1,.546,1.317v9.263a1.544,1.544,0,0,1-1.544,1.544Z" transform="translate(0 0)" fill="none" stroke="#000" stroke-linecap="round" stroke-linejoin="round" stroke-width="1.25"/>
    <path id="パス_19214" data-name="パス 19214" d="M14,2V5.859a.772.772,0,0,0,.772.772h3.859" transform="translate(-2.281 0)" fill="none" stroke="#000" stroke-linecap="round" stroke-linejoin="round" stroke-width="1.25"/>
    <path id="パス_19215" data-name="パス 19215" d="M12,12v4.631" transform="translate(-1.825 -2.281)" fill="none" stroke="#000" stroke-linecap="round" stroke-linejoin="round" stroke-width="1.25"/>
    <path id="パス_19216" data-name="パス 19216" d="M13.631,14.316,11.316,12,9,14.316" transform="translate(-1.141 -2.281)" fill="none" stroke="#000" stroke-linecap="round" stroke-linejoin="round" stroke-width="1.25"/>
  </g>
</svg>
