<svg xmlns="http://www.w3.org/2000/svg" width="38" height="38" viewBox="0 0 38 38">
  <g id="icon" transform="translate(-437 -345)">
    <rect id="長方形_3607" data-name="長方形 3607" width="38" height="38" transform="translate(437 345)" fill="none"/>
    <path id="logo_w" d="M5000.895,12.939h2.083l1.362,3.279,1.269-3.279h1.964c.013,0-3.231,6.973-3.231,6.973S5000.921,12.939,5000.895,12.939Zm-16.5,6.525a5.467,5.467,0,0,1-1.9-8.821A5.326,5.326,0,0,1,4986.261,9h0a5.386,5.386,0,0,1,5.063,3.243,5.451,5.451,0,0,1-1.058,5.947,5.364,5.364,0,0,1-5.868,1.272Zm2.037-1.849a3.267,3.267,0,1,0-2.508-5.475,3.305,3.305,0,0,0-.869,2.372h0A3.254,3.254,0,0,0,4986.435,17.614Zm22.444-1.275a3.541,3.541,0,0,1,2.363-3.472,3.5,3.5,0,0,1,3.992,1.255,4.329,4.329,0,0,1,.681,2.728h-4.939a1.555,1.555,0,0,0,2.883.349l1.75.618a3.253,3.253,0,0,1-3.081,2.01A3.527,3.527,0,0,1,5008.879,16.339Zm2.057-.86h3a1.439,1.439,0,0,0-1.508-1.143h-.06A1.477,1.477,0,0,0,5010.936,15.479Zm-13.579,4.071V12.856h1.962V19.55Zm-3.859,0V9.285h1.949V19.549Zm4.805-8.078a1.146,1.146,0,1,1,.027,0Z" transform="translate(-4542.466 349.544)" fill="#2c5844"/>
  </g>
</svg>